<?xml version="1.0" encoding="UTF-8"?>
<svg id="Layer_1" xmlns="http://www.w3.org/2000/svg" version="1.1" viewBox="0 0 500 500">
  <!-- Generator: Adobe Illustrator 29.2.1, SVG Export Plug-In . SVG Version: 2.1.0 Build 116)  -->
  <defs>
    <style>
      .st0 {
        fill: #313131;
      }

      .st1 {
        fill: #ffd54f;
      }
    </style>
  </defs>
  <g>
    <polygon class="st0" points="244.56369 340.94136 287.53496 340.94136 347.75625 226.47103 402.55002 254.06936 352.2526 275.74196 345.74072 317.55226 448.80447 272.34189 454.06402 239.4755 364.62381 194.5846 383.29866 159.05864 340.34214 159.05864 244.56369 340.94136"/>
    <path class="st0" d="M142.61438,321.6968h101.97172l5.90246-37.37523h-29.76139l11.89655-76.27742h-10.31369c2.71688-.87725,5.19515-2.18519,7.41666-3.91757,4.65126-3.63102,7.59114-8.72998,8.50585-14.74877,1.24921-8.25901-1.84189-13.52651-4.65467-16.49192-3.86338-4.06851-9.31558-6.12943-16.20821-6.12943-6.36974,0-11.88889,1.7511-16.40369,5.20451-4.74829,3.62931-7.7435,8.74928-8.65934,14.80381-1.26254,8.30668,1.92701,13.59687,4.82518,16.57137,2.07284,2.12902,4.58402,3.70138,7.51028,4.70801h-39.67022l-5.92657,37.20103h29.37326l-6.2903,39.0764h-33.61257l-5.90132,37.37523Z"/>
    <polygon class="st0" points="51.18872 238.32985 45.93598 271.1622 134.85585 316.37143 140.91548 278.6756 96.9617 256.53486 147.94543 234.56776 154.15572 193.16148 51.18872 238.32985"/>
  </g>
  <g>
    <path class="st1" d="M55.54825,266.27032l72.60307,36.91358,3.14955-19.59388-46.88618-23.61809c-2.09947-1.0494-4.2592-1.89431-6.47308-2.53682-2.21725-.63978-3.96669-1.07713-5.24831-1.31209,1.28162-.35,3.14887-.8747,5.59835-1.57474,2.4488-.6994,4.89831-1.5741,7.34778-2.62417l54.40863-23.44275,3.14884-20.99395-84.14976,36.91426-3.49887,21.86865Z"/>
    <path class="st1" d="M213.34981,200.66436c4.43046,0,8.104-1.13675,11.02065-3.41089,2.91392-2.27481,4.66336-5.33633,5.24831-9.18521.58222-3.84891-.20445-6.91043-2.36149-9.18457-2.15969-2.27414-5.45276-3.41152-9.88457-3.41152-4.43319,0-8.13517,1.13739-11.10867,3.41152-2.97488,2.27414-4.75411,5.33566-5.33633,9.18457-.58495,3.84887.2329,6.9104,2.44947,9.18521,2.21388,2.27414,5.53809,3.41089,9.97263,3.41089Z"/>
    <polygon class="st1" points="222.44632 216.76001 172.41198 216.76001 169.26247 236.52919 198.6529 236.52919 189.55635 293.03729 155.9663 293.03729 152.81746 312.98117 237.14189 312.98117 240.29144 293.03729 210.54963 293.03729 222.44632 216.76001"/>
    <path class="st1" d="M352.77953,198.39023l16.09429-30.61587h-23.26809l-86.59856,164.45129h23.26809l61.75705-117.39045,71.55367,36.03952c2.21388,1.0494,4.54827,1.89704,6.99778,2.53682,2.44947.64251,4.48869,1.07986,6.12301,1.31209-1.63432.23492-3.79135.64251-6.47372,1.22474-2.68375.58495-5.24831,1.39944-7.69782,2.4488l-54.40863,23.44343-3.32417,21.34331,84.15044-36.91358,3.49887-21.86865-91.67221-46.01144Z"/>
  </g>
</svg>